<svg width="291" height="252" xmlns="http://www.w3.org/2000/svg"><defs><linearGradient x1="50%" y1="80.41%" x2="50%" y2="99.46%" id="a"><stop stop-color="#424242" offset="0%"/><stop stop-color="#464646" stop-opacity="0" offset="100%"/></linearGradient><linearGradient x1="50%" y1="99.47%" x2="50%" y2="80.15%" id="b"><stop stop-color="#424242" stop-opacity="0" offset="0%"/><stop stop-color="#424242" offset="100%"/></linearGradient><linearGradient x1="50%" y1="97.31%" x2="50%" y2="0%" id="c"><stop stop-color="#464646" stop-opacity="0" offset="0%"/><stop stop-color="#424242" offset="18.54%"/><stop stop-color="#424242" offset="80.5%"/><stop stop-color="#464646" stop-opacity="0" offset="100%"/></linearGradient><linearGradient x1="50%" y1="0%" x2="50%" y2="16.22%" id="d"><stop stop-color="#464646" stop-opacity="0" offset="0%"/><stop stop-color="#424242" offset="100%"/></linearGradient><linearGradient x1="50%" y1="0%" x2="50%" y2="100%" id="e"><stop stop-color="#464646" stop-opacity="0" offset="0%"/><stop stop-color="#464646" offset="13.29%"/><stop stop-color="#464646" offset="87.03%"/><stop stop-color="#464646" stop-opacity="0" offset="100%"/></linearGradient><linearGradient x1="50%" y1="87.64%" x2="50%" y2="100%" id="f"><stop stop-color="#424242" offset="0%"/><stop stop-color="#424242" stop-opacity="0" offset="100%"/></linearGradient><linearGradient x1="49.99%" y1="0%" x2="50%" y2="100%" id="g"><stop stop-color="#424242" stop-opacity="0" offset="0%"/><stop stop-color="#424242" offset="10.76%"/><stop stop-color="#424242" offset="88.14%"/><stop stop-color="#424242" stop-opacity="0" offset="100%"/></linearGradient></defs><g fill="none" fill-rule="evenodd"><g fill-rule="nonzero"><path fill="#B4B4B4" d="M71.44 87.59l2.76-2.76.85.85-2.76 2.76 2.76 2.76-.85.85-2.76-2.76-2.76 2.76-.85-.85 2.76-2.76-2.76-2.76.85-.85z"/><circle fill="#B4B4B4" cx="80.5" cy="88.5" r="3.5"/><path d="M89.5 92a3.5 3.5 0 1 0 0-7 3.5 3.5 0 0 0 0 7z" fill="#B4B4B4"/><path d="M89.5 91a2.5 2.5 0 1 0 0-5 2.5 2.5 0 0 0 0 5z" fill="#FFF"/><circle fill="#B4B4B4" cx="89.5" cy="96" r="2"/><circle fill="#424242" cx="100.5" cy="90.5" r="5.5"/><circle fill="#424242" cx="112" cy="89" r="4"/><circle fill="#424242" cx="123.45" cy="90.5" r="5.5"/><ellipse fill="#FFF" cx="123.45" cy="90.49" rx="4.5" ry="4.49"/><path fill="#424242" d="M131 85h75v7h-75z"/><path d="M258.9 104.11c-.5-.26-.9-.04-.9.5v13.79c0 .54.4.75.89.48l12.75-7.12c.49-.28.48-.71-.02-.98l-12.71-6.67h-.01z" fill="#464646"/><path d="M0 37v1h66v-1H0zm0 16v1h66v-1H0zm0 16v1h66v-1H0zm0 16v1h66v-1H0z" fill="#A6A6A6"/><path d="M1.5 0C.67 0 0 .67 0 1.5V3h66V1.5c0-.83-.67-1.5-1.5-1.5h-63zM0 3v80h1V3H0zm13 0v80h1V3h-1zm13 0v80h1V3h-1zm13 0v80h1V3h-1zm13 0v80h1V3h-1zm13 0v80h1V3h-1z" fill="url(#a)" transform="translate(0 19)"/><path d="M142 18v1h40v-1h-40zm0 16v1h40v-1h-40zm0 16v1h40v-1h-40zm0 16v1h40v-1h-40z" fill="#A6A6A6"/><path d="M1.5 0C.67 0 0 .67 0 1.5V3h40V1.5c0-.83-.68-1.5-1.5-1.5h-37zM0 3v80h1V3H0zm13 0v80h1V3h-1zm13 0v80h1V3h-1zm13 0v80h1V3h-1z" fill="url(#b)" transform="translate(142)"/><path d="M184 18v1h40v-1h-40zm0 16v1h40v-1h-40zm0 16v1h40v-1h-40zm0 16v1h40v-1h-40z" fill="#A6A6A6"/><path d="M0 0v80h1V0H0zm13 0v80h1V0h-1zm13 0v80h1V0h-1zm13 0v80h1V0h-1z" fill="url(#c)" transform="translate(184 3)"/><path d="M74 18v1h66v-1H74zm0 16v1h66v-1H74zm0 16v1h66v-1H74zm0 16v1h66v-1H74z" fill="#A6A6A6"/><path d="M0 0v80h1V0H0zm13 0v80h1V0h-1zm13 0v80h1V0h-1zm13 0v80h1V0h-1zm13 0v80h1V0h-1zm13 0v80h1V0h-1z" fill="url(#c)" transform="translate(74 3)"/><path d="M0 61v1a1 1 0 0 0 1 1h254a1 1 0 0 0 1-1v-1H0zm0 0V0h1v61H0zm15 0V0h1v61h-1zm15 0V0h1v61h-1zm15 0V0h1v61h-1zm15 0V0h1v61h-1zm15 0V0h1v61h-1zm15 0V0h1v61h-1zm15 0V0h1v61h-1zm15 0V0h1v61h-1zm15 0V0h1v61h-1zm15 0V0h1v61h-1zm15 0V0h1v61h-1zm15 0V0h1v61h-1zm15 0V0h1v61h-1zm15 0V0h1v61h-1zm15 0V0h1v61h-1zm15 0V0h1v61h-1zm15 0V0h1v61h-1z" fill="url(#d)" transform="translate(0 104)"/><path d="M12 104h7v40h-7v-40zm15 0h7v40h-7v-40zm30 0h7v40h-7v-40zm15 0h7v40h-7v-40zm15 0h7v40h-7v-40zm30 0h7v40h-7v-40zm15 0h7v40h-7v-40zm30 0h7v40h-7v-40zm15 0h7v40h-7v-40zm15 0h7v40h-7v-40zm30 0h7v40h-7v-40zm15 0h7v40h-7v-40zM3 3.5v-1C3 1.67 3.67 1 4.5 1h63c.83 0 1.5.67 1.5 1.5V17H3V3.5zM55 16V4H43v12h12zm1 0h12V4H56v12zm-14 0V4H30v12h12zm-13 0V4H17v12h12zm-13 0V4H4v12h12z" fill="#424242"/><g transform="translate(0 6)"><rect fill="#424242" width="72" height="8" rx="2"/><path d="M17.73 3.15h1.24a2.17 2.17 0 0 0-.84-1.55 2.46 2.46 0 0 0-.76-.4 2.95 2.95 0 0 0-2.1.1c-.36.15-.66.37-.9.64-.25.28-.44.6-.57.98-.27.77-.27 1.6 0 2.38.23.72.76 1.3 1.46 1.6a3.1 3.1 0 0 0 2.18.07c.59-.2 1.07-.65 1.32-1.22.14-.3.22-.62.25-.99h-1.23c-.05.4-.18.7-.4.95-.22.24-.53.36-.92.36-.49.03-.95-.2-1.22-.61a1.9 1.9 0 0 1-.27-.63 3 3 0 0 1 0-1.45c.06-.24.15-.45.28-.64.27-.4.73-.63 1.22-.61.45 0 .87.23 1.12.61.07.13.12.26.14.4v.01zm11.05 1.6l.76-2.12h.01l.73 2.13h-1.5v-.01zm.12-3.55L26.7 7H28l.45-1.3h2.17l.44 1.3h1.32l-2.17-5.8H28.9zm12.7 2.73V2.19h.98c.15 0 .3 0 .43.03.13.02.25.06.36.13.1.06.18.15.24.26.06.11.1.26.1.45 0 .18-.04.33-.1.44a.68.68 0 0 1-.24.27 2 2 0 0 1-.78.16h-1 .01zM40.31 1.2V7h1.27V4.92h1.34c.37 0 .68-.05.93-.16a1.66 1.66 0 0 0 .97-1.02c.15-.45.15-.92 0-1.37-.15-.47-.5-.84-.97-1.02a2.4 2.4 0 0 0-.92-.16h-2.62v.01zm13.87 2.92c0-.25.03-.5.09-.74s.15-.45.27-.64c.27-.4.73-.64 1.22-.61.49-.03.95.2 1.22.61.13.19.22.4.27.64.11.48.11.97 0 1.45-.05.23-.14.44-.27.62-.27.4-.73.64-1.22.61-.29 0-.53-.05-.73-.16a1.4 1.4 0 0 1-.49-.45 1.9 1.9 0 0 1-.27-.62 2.94 2.94 0 0 1-.09-.7v-.01zm-1.27 0c0 .42.06.82.2 1.18.23.72.76 1.3 1.46 1.6.35.15.75.23 1.2.23.44 0 .84-.08 1.2-.23.7-.3 1.23-.88 1.45-1.6.27-.77.27-1.62 0-2.39a2.6 2.6 0 0 0-1.46-1.62 2.93 2.93 0 0 0-1.2-.24 2.8 2.8 0 0 0-2.1.89 3 3 0 0 0-.56.97c-.13.37-.2.78-.2 1.21h.01z" fill="#FFF"/></g><path d="M289 3V1a1 1 0 0 0-1-1h-24a1 1 0 0 0-1 1v2h-1a1 1 0 0 0-1 .99v4.02a1 1 0 0 0 1 .99h28a1 1 0 0 0 1-.99V3.99a1 1 0 0 0-1-.99h-1zm-25 0V2h24v1h-4V2h-1v1h-4V2h-1v1h-4V2h-1v1h-4V2h-1v1h-4z" fill="#424242"/><path d="M268.4 5.47h.83c-.03-.4-.24-.79-.56-1.04a1.6 1.6 0 0 0-.52-.28c-.2-.06-.4-.1-.62-.1-.3 0-.57.06-.8.17-.25.1-.45.25-.61.44-.17.18-.3.4-.38.65-.18.52-.18 1.1 0 1.62.09.24.21.46.38.64.16.18.36.33.6.43a2.05 2.05 0 0 0 1.48.05c.4-.14.72-.44.89-.83.09-.2.14-.42.17-.66h-.84a1.1 1.1 0 0 1-.27.64.8.8 0 0 1-.62.24.94.94 0 0 1-.82-.42 1.29 1.29 0 0 1-.18-.41 2 2 0 0 1 .18-1.41c.18-.28.5-.44.82-.42.3 0 .6.16.76.42.05.08.09.17.1.27h.01zm4.45 1.08l.51-1.43h.01l.5 1.43h-1.02zm.08-2.4l-1.48 3.92h.87l.3-.87h1.47l.3.87h.9l-1.47-3.92h-.89zm5.57 1.84V4.82h.67c.1 0 .2 0 .29.02.09.02.17.04.24.09.07.04.12.1.17.18.04.07.06.17.06.3 0 .12-.02.22-.07.3a.46.46 0 0 1-.16.18.68.68 0 0 1-.24.08c-.1.02-.2.02-.29.02h-.67zm-.86-1.84v3.92h.86v-1.4h.9c.25 0 .46-.04.63-.11a1.17 1.17 0 0 0 .66-.69c.1-.3.1-.63 0-.93-.1-.32-.35-.57-.66-.68-.17-.07-.38-.1-.63-.1h-1.76v-.01zM284 6.13c0-.18.02-.34.05-.5.04-.16.1-.3.19-.43.18-.28.5-.43.82-.42.2 0 .36.04.5.11.13.08.24.18.33.3.08.13.14.28.18.44.08.32.08.66 0 .98-.04.15-.1.3-.19.42a.94.94 0 0 1-.33.3c-.13.07-.3.1-.49.1a.93.93 0 0 1-.82-.41 1.25 1.25 0 0 1-.19-.41 1.9 1.9 0 0 1-.05-.48zm-.87 0c0 .28.05.55.14.8.08.24.21.46.38.64.16.18.36.33.6.43a2 2 0 0 0 .81.16 1.89 1.89 0 0 0 1.41-.59c.17-.18.3-.4.39-.65a2.48 2.48 0 0 0 0-1.6 1.95 1.95 0 0 0-.38-.66 1.75 1.75 0 0 0-.6-.44 2.18 2.18 0 0 0-1.62 0c-.25.1-.45.25-.62.44a2 2 0 0 0-.38.65 2.7 2.7 0 0 0-.13.82z" fill="#FFF"/><path d="M263.05 18v1H289v-1h-25.95zm0 7v1H289v-1h-25.95zm0 7v1H289v-1h-25.95zm0 7v1H289v-1h-25.95z" fill="#A6A6A6"/><path d="M264 10a1 1 0 0 0-1 1v1h26v-1a1 1 0 0 0-1-1h-24zm-1 2v34h1V12h-1zm5 0v34h1V12h-1zm5 0v34h1V12h-1zm5 0v34h1V12h-1zm5 0v34h1V12h-1zm5 0v34h1V12h-1z" fill="url(#a)"/><path d="M263.05 62v1H289v-1h-25.95zm0 7v1H289v-1h-25.95zm0 7v1H289v-1h-25.95zm0 7v1H289v-1h-25.95z" fill="#A6A6A6"/><path d="M263.05 56v34h1V56h-1zm5 0v34h1V56h-1zm5 0v34h1V56h-1zm5 0v34h1V56h-1zm5 0v34h1V56h-1zm5 34h1V56h-1v34z" fill="url(#e)"/><path fill="#424242" d="M265 49.33l1.53-1.53.47.47-1.53 1.53 1.53 1.53-.47.47-1.53-1.53-1.53 1.53-.47-.47 1.53-1.53-1.53-1.53.47-.47z"/><circle fill="#424242" cx="270" cy="50" r="2"/><path d="M275 52a2 2 0 1 1 0-4 2 2 0 0 1 0 4zm0-.57a1.43 1.43 0 1 0 0-2.86 1.43 1.43 0 0 0 0 2.86z" fill="#424242"/><circle fill="#424242" cx="280" cy="50" r="2"/><path d="M261 92h30v3h-30v-3zm12 21.13h2.25l4.5 4.5v-13.5l-4.5 4.5H273v4.5zm9-5.63v6.75a3.74 3.74 0 0 0 2.25-3.37c0-1.48-.92-2.76-2.25-3.38zm6.75 3.38c.02-4.2-2.85-7.88-6.75-7.88v2.25c2.51 0 4.51 2.57 4.5 5.62-.01 3.04-2.02 5.63-4.5 5.63v2.25c3.86 0 6.73-3.7 6.75-7.87z" fill="#424242"/><path d="M2 187h12v1H2v-1zm0 16h12v1H2v-1zm0 16h12v1H2v-1zm0 16h12v1H2v-1zm14-48h12v1H16v-1zm0 16h12v1H16v-1zm0 16h12v1H16v-1zm0 16h12v1H16v-1zm15-48h12v1H31v-1zm0 16h12v1H31v-1zm0 16h12v1H31v-1zm0 16h12v1H31v-1zm14-48h12v1H45v-1zm0 16h12v1H45v-1zm0 16h12v1H45v-1zm0 16h12v1H45v-1z" fill="#9E9E9E"/><path d="M0 172h1v80H0v-80zm56 0h1v80h-1v-80zm-14 0h1v80h-1v-80zm-14 0h1v80h-1v-80zm-14 0h1v80h-1v-80zm-12 0h1v80H2v-80zm56 0h1v80h-1v-80zm-14 0h1v80h-1v-80zm-14 0h1v80h-1v-80zm-14 0h1v80h-1v-80z" fill="url(#f)"/><path d="M2 169h55a2 2 0 0 1 2 2v1H0v-1c0-1.1.9-2 2-2z" fill="#424242"/><g><path d="M64 187h12v1H64v-1zm0 16h12v1H64v-1zm0 16h12v1H64v-1zm0 16h12v1H64v-1zm14-48h12v1H78v-1zm0 16h12v1H78v-1zm0 16h12v1H78v-1zm0 16h12v1H78v-1zm15-48h12v1H93v-1zm0 16h12v1H93v-1zm0 16h12v1H93v-1zm0 16h12v1H93v-1zm14-48h12v1h-12v-1zm0 16h12v1h-12v-1zm0 16h12v1h-12v-1zm0 16h12v1h-12v-1z" fill="#9E9E9E"/><path d="M0 0h1v83H0V0zm56 0h1v83h-1V0zM42 0h1v83h-1V0zM28 0h1v83h-1V0zM14 0h1v83h-1V0zM2 0h1v83H2V0zm56 0h1v83h-1V0zM44 0h1v83h-1V0zM30 0h1v83h-1V0zM16 0h1v83h-1V0z" fill="url(#g)" transform="translate(62 169)"/></g><g transform="translate(208 85)"><circle fill="#424242" cx="5.5" cy="5.5" r="5.5"/><circle fill="#424242" cx="18.5" cy="5.5" r="5.5"/><circle fill="#424242" cx="31.5" cy="5.5" r="5.5"/><circle fill="#424242" cx="44.5" cy="5.5" r="5.5"/><path d="M6.3 8.7V2.3H5.28c-.05.42-.29.8-.65 1.01-.17.1-.36.17-.57.2a3 3 0 0 1-.65.06v.98h1.61V8.7h1.3-.02zm9.85-4.01h1.24c0-.17.02-.35.05-.52.03-.17.09-.33.17-.48a.99.99 0 0 1 .32-.34c.14-.1.3-.14.48-.14.27 0 .5.1.68.26.18.18.27.42.27.73 0 .2-.04.37-.13.52-.09.16-.2.3-.33.41a2.9 2.9 0 0 1-.43.34c-.67.43-1.3.91-1.88 1.45-.4.48-.6 1.08-.59 1.7h4.7v-1.1h-3.03c.16-.23.34-.42.55-.58.21-.17.42-.32.64-.47l.66-.43c.21-.15.4-.3.58-.49.37-.39.58-.91.57-1.45 0-.86-.55-1.61-1.37-1.86a2.3 2.3 0 0 0-.83-.14c-.39 0-.73.06-1.02.2-.3.13-.54.31-.74.55-.2.23-.34.5-.44.82-.1.31-.14.65-.13 1.02h.01zm14.77.2v.91c.16 0 .33 0 .5.02.17 0 .33.04.48.1.15.05.27.15.36.28.1.12.14.3.14.55 0 .31-.1.56-.3.74-.2.18-.45.27-.74.27-.19 0-.35-.04-.49-.1a1.04 1.04 0 0 1-.55-.67 1.8 1.8 0 0 1-.08-.5H29c0 .38.05.7.16 1 .22.55.67.98 1.24 1.17.89.3 1.86.16 2.63-.38.47-.38.74-.96.73-1.56a1.4 1.4 0 0 0-1.14-1.45v-.02c.3-.08.52-.25.67-.48.15-.24.23-.51.23-.83a1.64 1.64 0 0 0-.7-1.31 2.1 2.1 0 0 0-.68-.35 2.68 2.68 0 0 0-1.67.05c-.53.2-.94.62-1.14 1.15-.1.27-.16.57-.18.9h1.24c0-.33.07-.6.24-.82.17-.21.42-.32.75-.32.23 0 .44.07.63.22.18.15.27.36.27.63 0 .18-.04.33-.13.44-.09.11-.2.2-.34.25-.14.06-.28.1-.44.1a1.7 1.7 0 0 1-.45 0v.01zm13.48-.96v2.22h-1.68l1.66-2.22h.03-.01zm0 3.29V8.7h1.24V7.22h.85V6.15h-.85V2.3h-1.16L41.7 6.03v1.19h2.7z" fill="#FFF"/></g></g><circle fill="#424242" fill-rule="nonzero" cx="263.5" cy="125.5" r="5.5"/><path d="M261.05 129v-6.44h2.1c.78 0 1.3.03 1.54.1.37.1.68.3.93.62a2 2 0 0 1 .37 1.26c0 .4-.07.73-.22 1-.14.27-.32.48-.54.63-.22.16-.45.26-.68.3-.3.07-.76.1-1.35.1h-.84V129h-1.3zm1.3-5.35v1.83h.72c.51 0 .85-.04 1.03-.1a.85.85 0 0 0 .55-.82.83.83 0 0 0-.2-.58.9.9 0 0 0-.53-.29 6.25 6.25 0 0 0-.94-.04h-.62z" fill="#FFF"/></g></svg>